<svg width="260" height="75" viewBox="0 0 260 75" fill="none" xmlns="http://www.w3.org/2000/svg">
<path d="M24.45 47.25H9.25L6.45 55H1.65L14.25 20.35H19.5L32.05 55H27.25L24.45 47.25ZM23.15 43.55L16.85 25.95L10.55 43.55H23.15ZM65.4914 61.6L58.5414 54.65C56.8414 55.1167 55.1081 55.35 53.3414 55.35C50.1081 55.35 47.1581 54.6 44.4914 53.1C41.8247 51.5667 39.7081 49.45 38.1414 46.75C36.6081 44.0167 35.8414 40.95 35.8414 37.55C35.8414 34.15 36.6081 31.1 38.1414 28.4C39.7081 25.6667 41.8247 23.55 44.4914 22.05C47.1581 20.5167 50.1081 19.75 53.3414 19.75C56.6081 19.75 59.5747 20.5167 62.2414 22.05C64.9081 23.55 67.0081 25.65 68.5414 28.35C70.0747 31.05 70.8414 34.1167 70.8414 37.55C70.8414 40.8833 70.1081 43.8833 68.6414 46.55C67.1747 49.2167 65.1581 51.3167 62.5914 52.85L71.3914 61.6H65.4914ZM40.4914 37.55C40.4914 40.3167 41.0414 42.75 42.1414 44.85C43.2747 46.95 44.8081 48.5667 46.7414 49.7C48.7081 50.8333 50.9081 51.4 53.3414 51.4C55.7747 51.4 57.9581 50.8333 59.8914 49.7C61.8581 48.5667 63.3914 46.95 64.4914 44.85C65.6247 42.75 66.1914 40.3167 66.1914 37.55C66.1914 34.75 65.6247 32.3167 64.4914 30.25C63.3914 28.15 61.8747 26.5333 59.9414 25.4C58.0081 24.2667 55.8081 23.7 53.3414 23.7C50.8747 23.7 48.6747 24.2667 46.7414 25.4C44.8081 26.5333 43.2747 28.15 42.1414 30.25C41.0414 32.3167 40.4914 34.75 40.4914 37.55Z" fill="white"/>
<path d="M96.6457 20.15V23.85H81.4957V35.6H93.7957V39.3H81.4957V55H76.9457V20.15H96.6457ZM106.691 20.15V55H102.141V20.15H106.691ZM135.896 20.15V23.85H126.396V55H121.846V23.85H112.296V20.15H135.896ZM168.896 55H164.346L146.046 27.25V55H141.496V20.1H146.046L164.346 47.8V20.1H168.896V55ZM181.203 23.85V35.5H193.903V39.25H181.203V51.25H195.403V55H176.653V20.1H195.403V23.85H181.203ZM213.338 55.35C211.038 55.35 208.971 54.95 207.138 54.15C205.338 53.3167 203.921 52.1833 202.888 50.75C201.854 49.2833 201.321 47.6 201.288 45.7H206.138C206.304 47.3333 206.971 48.7167 208.138 49.85C209.338 50.95 211.071 51.5 213.338 51.5C215.504 51.5 217.204 50.9667 218.438 49.9C219.704 48.8 220.338 47.4 220.338 45.7C220.338 44.3667 219.971 43.2833 219.238 42.45C218.504 41.6167 217.588 40.9833 216.488 40.55C215.388 40.1167 213.904 39.65 212.038 39.15C209.738 38.55 207.888 37.95 206.488 37.35C205.121 36.75 203.938 35.8167 202.938 34.55C201.971 33.25 201.488 31.5167 201.488 29.35C201.488 27.45 201.971 25.7667 202.938 24.3C203.904 22.8333 205.254 21.7 206.988 20.9C208.754 20.1 210.771 19.7 213.038 19.7C216.304 19.7 218.971 20.5167 221.038 22.15C223.138 23.7833 224.321 25.95 224.588 28.65H219.588C219.421 27.3167 218.721 26.15 217.488 25.15C216.254 24.1167 214.621 23.6 212.588 23.6C210.688 23.6 209.138 24.1 207.938 25.1C206.738 26.0667 206.138 27.4333 206.138 29.2C206.138 30.4667 206.488 31.5 207.188 32.3C207.921 33.1 208.804 33.7167 209.838 34.15C210.904 34.55 212.388 35.0167 214.288 35.55C216.588 36.1833 218.438 36.8167 219.838 37.45C221.238 38.05 222.438 39 223.438 40.3C224.438 41.5667 224.938 43.3 224.938 45.5C224.938 47.2 224.488 48.8 223.588 50.3C222.688 51.8 221.354 53.0167 219.588 53.95C217.821 54.8833 215.738 55.35 213.338 55.35ZM242.683 55.35C240.383 55.35 238.317 54.95 236.483 54.15C234.683 53.3167 233.267 52.1833 232.233 50.75C231.2 49.2833 230.667 47.6 230.633 45.7H235.483C235.65 47.3333 236.317 48.7167 237.483 49.85C238.683 50.95 240.417 51.5 242.683 51.5C244.85 51.5 246.55 50.9667 247.783 49.9C249.05 48.8 249.683 47.4 249.683 45.7C249.683 44.3667 249.317 43.2833 248.583 42.45C247.85 41.6167 246.933 40.9833 245.833 40.55C244.733 40.1167 243.25 39.65 241.383 39.15C239.083 38.55 237.233 37.95 235.833 37.35C234.467 36.75 233.283 35.8167 232.283 34.55C231.317 33.25 230.833 31.5167 230.833 29.35C230.833 27.45 231.317 25.7667 232.283 24.3C233.25 22.8333 234.6 21.7 236.333 20.9C238.1 20.1 240.117 19.7 242.383 19.7C245.65 19.7 248.317 20.5167 250.383 22.15C252.483 23.7833 253.667 25.95 253.933 28.65H248.933C248.767 27.3167 248.067 26.15 246.833 25.15C245.6 24.1167 243.967 23.6 241.933 23.6C240.033 23.6 238.483 24.1 237.283 25.1C236.083 26.0667 235.483 27.4333 235.483 29.2C235.483 30.4667 235.833 31.5 236.533 32.3C237.267 33.1 238.15 33.7167 239.183 34.15C240.25 34.55 241.733 35.0167 243.633 35.55C245.933 36.1833 247.783 36.8167 249.183 37.45C250.583 38.05 251.783 39 252.783 40.3C253.783 41.5667 254.283 43.3 254.283 45.5C254.283 47.2 253.833 48.8 252.933 50.3C252.033 51.8 250.7 53.0167 248.933 53.95C247.167 54.8833 245.083 55.35 242.683 55.35Z" fill="#F0FEFF"/>
</svg>
