<svg width="323" height="122" viewBox="0 0 323 122" fill="none" xmlns="http://www.w3.org/2000/svg">
<rect x="2.5" y="2.5" width="318" height="117" stroke="#344A53" stroke-width="5"/>
<rect width="323" height="122" fill="white"/>
<path d="M55.45 71.25H40.25L37.45 79H32.65L45.25 44.35H50.5L63.05 79H58.25L55.45 71.25ZM54.15 67.55L47.85 49.95L41.55 67.55H54.15ZM96.4914 85.6L89.5414 78.65C87.8414 79.1167 86.1081 79.35 84.3414 79.35C81.1081 79.35 78.1581 78.6 75.4914 77.1C72.8247 75.5667 70.7081 73.45 69.1414 70.75C67.6081 68.0167 66.8414 64.95 66.8414 61.55C66.8414 58.15 67.6081 55.1 69.1414 52.4C70.7081 49.6667 72.8247 47.55 75.4914 46.05C78.1581 44.5167 81.1081 43.75 84.3414 43.75C87.6081 43.75 90.5747 44.5167 93.2414 46.05C95.9081 47.55 98.0081 49.65 99.5414 52.35C101.075 55.05 101.841 58.1167 101.841 61.55C101.841 64.8833 101.108 67.8833 99.6414 70.55C98.1747 73.2167 96.1581 75.3167 93.5914 76.85L102.391 85.6H96.4914ZM71.4914 61.55C71.4914 64.3167 72.0414 66.75 73.1414 68.85C74.2747 70.95 75.8081 72.5667 77.7414 73.7C79.7081 74.8333 81.9081 75.4 84.3414 75.4C86.7747 75.4 88.9581 74.8333 90.8914 73.7C92.8581 72.5667 94.3914 70.95 95.4914 68.85C96.6247 66.75 97.1914 64.3167 97.1914 61.55C97.1914 58.75 96.6247 56.3167 95.4914 54.25C94.3914 52.15 92.8747 50.5333 90.9414 49.4C89.0081 48.2667 86.8081 47.7 84.3414 47.7C81.8747 47.7 79.6747 48.2667 77.7414 49.4C75.8081 50.5333 74.2747 52.15 73.1414 54.25C72.0414 56.3167 71.4914 58.75 71.4914 61.55ZM127.646 44.15V47.85H112.496V59.6H124.796V63.3H112.496V79H107.946V44.15H127.646ZM137.691 44.15V79H133.141V44.15H137.691ZM166.896 44.15V47.85H157.396V79H152.846V47.85H143.296V44.15H166.896ZM199.896 79H195.346L177.046 51.25V79H172.496V44.1H177.046L195.346 71.8V44.1H199.896V79ZM212.203 47.85V59.5H224.903V63.25H212.203V75.25H226.403V79H207.653V44.1H226.403V47.85H212.203ZM244.338 79.35C242.038 79.35 239.971 78.95 238.138 78.15C236.338 77.3167 234.921 76.1833 233.888 74.75C232.854 73.2833 232.321 71.6 232.288 69.7H237.138C237.304 71.3333 237.971 72.7167 239.138 73.85C240.338 74.95 242.071 75.5 244.338 75.5C246.504 75.5 248.204 74.9667 249.438 73.9C250.704 72.8 251.338 71.4 251.338 69.7C251.338 68.3667 250.971 67.2833 250.238 66.45C249.504 65.6167 248.588 64.9833 247.488 64.55C246.388 64.1167 244.904 63.65 243.038 63.15C240.738 62.55 238.888 61.95 237.488 61.35C236.121 60.75 234.938 59.8167 233.938 58.55C232.971 57.25 232.488 55.5167 232.488 53.35C232.488 51.45 232.971 49.7667 233.938 48.3C234.904 46.8333 236.254 45.7 237.988 44.9C239.754 44.1 241.771 43.7 244.038 43.7C247.304 43.7 249.971 44.5167 252.038 46.15C254.138 47.7833 255.321 49.95 255.588 52.65H250.588C250.421 51.3167 249.721 50.15 248.488 49.15C247.254 48.1167 245.621 47.6 243.588 47.6C241.688 47.6 240.138 48.1 238.938 49.1C237.738 50.0667 237.138 51.4333 237.138 53.2C237.138 54.4667 237.488 55.5 238.188 56.3C238.921 57.1 239.804 57.7167 240.838 58.15C241.904 58.55 243.388 59.0167 245.288 59.55C247.588 60.1833 249.438 60.8167 250.838 61.45C252.238 62.05 253.438 63 254.438 64.3C255.438 65.5667 255.938 67.3 255.938 69.5C255.938 71.2 255.488 72.8 254.588 74.3C253.688 75.8 252.354 77.0167 250.588 77.95C248.821 78.8833 246.738 79.35 244.338 79.35ZM273.683 79.35C271.383 79.35 269.317 78.95 267.483 78.15C265.683 77.3167 264.267 76.1833 263.233 74.75C262.2 73.2833 261.667 71.6 261.633 69.7H266.483C266.65 71.3333 267.317 72.7167 268.483 73.85C269.683 74.95 271.417 75.5 273.683 75.5C275.85 75.5 277.55 74.9667 278.783 73.9C280.05 72.8 280.683 71.4 280.683 69.7C280.683 68.3667 280.317 67.2833 279.583 66.45C278.85 65.6167 277.933 64.9833 276.833 64.55C275.733 64.1167 274.25 63.65 272.383 63.15C270.083 62.55 268.233 61.95 266.833 61.35C265.467 60.75 264.283 59.8167 263.283 58.55C262.317 57.25 261.833 55.5167 261.833 53.35C261.833 51.45 262.317 49.7667 263.283 48.3C264.25 46.8333 265.6 45.7 267.333 44.9C269.1 44.1 271.117 43.7 273.383 43.7C276.65 43.7 279.317 44.5167 281.383 46.15C283.483 47.7833 284.667 49.95 284.933 52.65H279.933C279.767 51.3167 279.067 50.15 277.833 49.15C276.6 48.1167 274.967 47.6 272.933 47.6C271.033 47.6 269.483 48.1 268.283 49.1C267.083 50.0667 266.483 51.4333 266.483 53.2C266.483 54.4667 266.833 55.5 267.533 56.3C268.267 57.1 269.15 57.7167 270.183 58.15C271.25 58.55 272.733 59.0167 274.633 59.55C276.933 60.1833 278.783 60.8167 280.183 61.45C281.583 62.05 282.783 63 283.783 64.3C284.783 65.5667 285.283 67.3 285.283 69.5C285.283 71.2 284.833 72.8 283.933 74.3C283.033 75.8 281.7 77.0167 279.933 77.95C278.167 78.8833 276.083 79.35 273.683 79.35Z" fill="#344A53"/>
</svg>
